<?xml version="1.0" encoding="utf-8"?>
<!-- Generator: Adobe Illustrator 25.2.1, SVG Export Plug-In . SVG Version: 6.00 Build 0)  -->
<svg version="1.1" id="Ñëîé_2" xmlns="http://www.w3.org/2000/svg" xmlns:xlink="http://www.w3.org/1999/xlink" x="0px" y="0px"
	 viewBox="0 0 788 788" style="enable-background:new 0 0 788 788;" xml:space="preserve">
<style type="text/css">
	.st0{fill:none;}
	.st1{fill:url(#SVGID_1_);}
</style>
<circle cx="393.65" cy="394.29" r="394"/>
<g>
	<path class="st0" d="M730.14,530.55c1.38-3.39,2.72-6.8,4-10.25l-77.38,93.49L730.14,530.55z"/>
	<path class="st0" d="M120.27,157.25c-6.37,7.38-12.44,15.03-18.21,22.9l200.83,490.05L120.27,157.25z"/>
	<path class="st0" d="M744.29,488.57c1.22-4.53,2.37-9.08,3.42-13.68L634.09,621.72L744.29,488.57z"/>
	<path class="st0" d="M707.08,577.23c0.98-1.67,1.95-3.34,2.9-5.02l-29.42,33.38L707.08,577.23z"/>
	<path class="st0" d="M151.59,125.22c-7.59,6.87-14.88,14.06-21.87,21.55l187.83,527.6L151.59,125.22z"/>
	<path class="st0" d="M752.77,448.08c0.81-5.44,1.51-10.92,2.08-16.43L612.52,629.31L752.77,448.08z"/>
	<path class="st0" d="M750.86,328.44c-1.38-7.53-2.99-14.97-4.82-22.32L553.99,649.9L750.86,328.44z"/>
	<path class="st0" d="M755.86,368.22c-0.49-7-1.17-13.94-2.05-20.83l-181.3,296.04L755.86,368.22z"/>
	<path class="st0" d="M756.49,408.12c0.18-4.69,0.3-9.39,0.3-14.12c0-1.57-0.04-3.13-0.06-4.69L592.02,636.54L756.49,408.12z"/>
	<path class="st0" d="M34.19,432c0.56,5.35,1.24,10.67,2.02,15.95l141.25,179.62L34.19,432z"/>
	<path class="st0" d="M741.33,289.07c-2.39-7.91-5.04-15.69-7.95-23.36l-197,390.24L741.33,289.07z"/>
	<path class="st0" d="M93.58,192.2c-5.14,7.65-9.98,15.51-14.54,23.56l208.49,449.71L93.58,192.2z"/>
	<path class="st0" d="M41.17,474.33c1,4.43,2.1,8.83,3.26,13.2l111.21,132.35L41.17,474.33z"/>
	<path class="st0" d="M54.13,518.38c1.21,3.31,2.48,6.59,3.78,9.86l74.81,83.67L54.13,518.38z"/>
	<path class="st0" d="M32.26,390.4c-0.01,1.2-0.05,2.39-0.05,3.6c0,4.94,0.13,9.85,0.32,14.74l165.67,226.14L32.26,390.4z"/>
	<path class="st0" d="M54.64,268.28c-2.8,7.56-5.34,15.24-7.63,23.02l207.52,363.29L54.64,268.28z"/>
	<path class="st0" d="M34.98,349.11c-0.83,6.73-1.47,13.53-1.92,20.37l184.89,272.36L34.98,349.11z"/>
	<path class="st0" d="M71.68,229.4c-3.93,7.7-7.6,15.56-10.99,23.56l210.75,407.31L71.68,229.4z"/>
	<path class="st0" d="M42.43,308.33c-1.75,7.22-3.31,14.51-4.62,21.89L236.7,648.43L42.43,308.33z"/>
	<path class="st0" d="M76.45,567.6c0.91,1.67,1.85,3.33,2.79,4.99l29.45,31.08L76.45,567.6z"/>
	<path class="st0" d="M269.61,53.82c-10.68,3.92-21.12,8.34-31.3,13.21l119.93,616.27L269.61,53.82z"/>
	<path class="st0" d="M226.79,72.81c-9.8,5.13-19.34,10.68-28.58,16.65l146.93,591.49L226.79,72.81z"/>
	<path class="st0" d="M656.54,143.83c-7.14-7.48-14.62-14.64-22.37-21.48L474.05,675.27L656.54,143.83z"/>
	<path class="st0" d="M361.9,33.19c-11.74,1.05-23.32,2.65-34.71,4.79l56.39,648.14L361.9,33.19z"/>
	<path class="st0" d="M456.74,37.06c-11.44-1.98-23.06-3.44-34.84-4.32l-13.46,653.54L456.74,37.06z"/>
	<path class="st0" d="M502.65,48.13c-10.99-3.43-22.22-6.35-33.63-8.74l-48.05,645.93L502.65,48.13z"/>
	<path class="st0" d="M314.95,40.5c-11.34,2.54-22.47,5.62-33.38,9.19l89.46,635.34L314.95,40.5z"/>
	<path class="st0" d="M684.79,177.2c-5.92-7.91-12.17-15.55-18.7-22.95L488.56,671.23L684.79,177.2z"/>
	<path class="st0" d="M546.3,64.98c-10.3-4.76-20.85-9.04-31.65-12.84l-80.97,631.61L546.3,64.98z"/>
	<path class="st0" d="M623.8,113.52c-8.32-6.81-16.94-13.26-25.85-19.32L460.13,678.71L623.8,113.52z"/>
	<path class="st0" d="M586.9,86.99c-9.39-5.9-19.06-11.38-29-16.41L446.7,681.57L586.9,86.99z"/>
	<path class="st0" d="M187.25,96.84c-8.75,6.12-17.22,12.61-25.39,19.45l169.74,561.67L187.25,96.84z"/>
	<path class="st0" d="M708.36,212.94c-4.69-8.11-9.7-16.02-14.98-23.72L503.75,666.61L708.36,212.94z"/>
	<path class="st0" d="M727.2,250.42c-3.5-8.11-7.29-16.06-11.36-23.85L519.66,661.54L727.2,250.42z"/>
	<path class="st0" d="M396.02,686.54L409.5,32.05c-4.98-0.2-9.97-0.33-15-0.33c-6.78,0-13.52,0.2-20.21,0.57L396.02,686.54z"/>
	<linearGradient id="SVGID_1_" gradientUnits="userSpaceOnUse" x1="394.4925" y1="32.0455" x2="394.4925" y2="756.2873">
		<stop  offset="0.0201" style="stop-color:#67C2D4"/>
		<stop  offset="0.1181" style="stop-color:#78AAC1"/>
		<stop  offset="0.2789" style="stop-color:#8E89A7"/>
		<stop  offset="0.4448" style="stop-color:#A07092"/>
		<stop  offset="0.6158" style="stop-color:#AD5D84"/>
		<stop  offset="0.7948" style="stop-color:#B5537B"/>
		<stop  offset="0.995" style="stop-color:#B74F78"/>
	</linearGradient>
	<path class="st1" d="M756.73,389.31c-0.09-7.08-0.37-14.12-0.86-21.09L572.52,643.43l181.3-296.04
		c-0.82-6.37-1.81-12.68-2.96-18.95L553.99,649.9l192.04-343.78c-1.43-5.74-3-11.42-4.7-17.05L536.39,655.95l197-390.24
		c-1.95-5.15-4.01-10.25-6.19-15.29L519.66,661.54l196.17-434.97c-2.4-4.6-4.89-9.15-7.47-13.63L503.75,666.61l189.62-477.39
		c-2.79-4.06-5.64-8.08-8.59-12.02L488.56,671.23l177.53-516.97c-3.12-3.53-6.29-7.02-9.54-10.42l-182.5,531.44l160.13-552.92
		c-3.4-3-6.85-5.95-10.37-8.83L460.13,678.71L597.95,94.2c-3.64-2.47-7.33-4.87-11.05-7.21L446.7,681.57L557.9,70.58
		c-3.83-1.94-7.7-3.8-11.6-5.61L433.68,683.75l80.97-631.61c-3.97-1.4-7.97-2.75-12-4.01l-81.69,637.19L469.01,39.4
		c-4.07-0.85-8.16-1.63-12.27-2.34l-48.3,649.22L421.9,32.74c-4.11-0.31-8.25-0.52-12.4-0.69l-13.48,654.49L374.29,32.28
		c-4.15,0.23-8.28,0.54-12.39,0.91l21.68,652.93L327.19,37.98c-4.11,0.77-8.19,1.61-12.24,2.52l56.08,644.54L281.57,49.69
		c-4.01,1.32-8.01,2.68-11.96,4.13l88.64,629.48L238.31,67.03c-3.88,1.86-7.72,3.79-11.52,5.78l118.35,608.14L198.21,89.46
		c-3.7,2.39-7.35,4.86-10.96,7.38l144.36,581.12L161.86,116.29c-3.48,2.92-6.91,5.89-10.27,8.93l165.96,549.15l-187.83-527.6
		c-3.21,3.44-6.37,6.92-9.45,10.48l182.62,512.96L102.06,180.15c-2.9,3.96-5.74,7.97-8.48,12.05l193.95,473.27L79.04,215.76
		c-2.54,4.49-5.01,9.03-7.36,13.64l199.76,430.87L60.69,252.96c-2.13,5.05-4.15,10.15-6.06,15.31l199.88,386.31L47,291.3
		c-1.66,5.62-3.18,11.29-4.57,17.02l194.27,340.1L37.81,330.21c-1.11,6.24-2.05,12.54-2.83,18.89l182.96,292.73L33.06,369.47
		c-0.46,6.93-0.73,13.9-0.8,20.93l165.95,244.47L32.53,408.74c0.31,7.82,0.86,15.58,1.66,23.27l143.28,195.57L36.22,447.96
		c1.33,8.9,2.98,17.7,4.95,26.38l114.47,145.56L44.43,487.53c2.79,10.47,6.02,20.77,9.7,30.85l78.59,93.53l-74.8-83.67
		c5.4,13.54,11.6,26.68,18.53,39.36l32.24,36.07l-29.45-31.08c14.23,25.07,31.38,48.28,50.96,69.17
		c5.46,5.82,11.11,11.46,16.94,16.91c12.31,11.51,25.41,22.17,39.23,31.89c4.24,2.98,8.54,5.89,12.92,8.69
		c4.58,2.93,9.23,5.75,13.94,8.48c3.39,1.96,6.81,3.86,10.26,5.72c3.18,1.71,6.39,3.36,9.63,4.97c2.95,1.47,5.91,2.9,8.9,4.29
		c2.54,1.18,5.1,2.33,7.68,3.46c2.63,1.15,5.28,2.27,7.94,3.35c2.19,0.89,4.38,1.77,6.59,2.62c2.39,0.92,4.79,1.83,7.21,2.7
		c1.97,0.71,3.94,1.41,5.93,2.09c2.18,0.75,4.38,1.46,6.58,2.16c1.83,0.59,3.67,1.16,5.51,1.72c2.03,0.61,4.06,1.23,6.1,1.81
		c1.73,0.49,3.48,0.95,5.23,1.41c1.88,0.5,3.76,0.99,5.65,1.46c1.69,0.42,3.38,0.84,5.08,1.24c1.75,0.41,3.5,0.79,5.26,1.18
		c1.66,0.36,3.31,0.74,4.98,1.08c1.64,0.33,3.29,0.63,4.93,0.94c1.63,0.31,3.27,0.62,4.91,0.91c1.55,0.27,3.1,0.52,4.65,0.77
		c1.62,0.26,3.24,0.52,4.87,0.76c1.47,0.22,2.94,0.42,4.42,0.62c1.62,0.22,3.24,0.43,4.86,0.63c1.4,0.17,2.81,0.33,4.21,0.48
		c1.62,0.18,3.24,0.35,4.86,0.5c1.35,0.13,2.7,0.25,4.05,0.36c1.62,0.14,3.24,0.27,4.87,0.39c1.3,0.09,2.62,0.17,3.92,0.25
		c1.62,0.1,3.25,0.2,4.87,0.28c1.27,0.06,2.56,0.1,3.83,0.15c1.63,0.06,3.25,0.13,4.89,0.17c1.25,0.03,2.52,0.03,3.77,0.05
		c1.61,0.02,3.21,0.06,4.82,0.06c0.03,0,0.05,0,0.08,0c1.25,0,2.5-0.03,3.75-0.05c1.64-0.02,3.27-0.02,4.91-0.06
		c1.26-0.03,2.51-0.09,3.76-0.13c1.64-0.06,3.28-0.11,4.91-0.19c1.27-0.06,2.54-0.14,3.81-0.21c1.64-0.1,3.28-0.2,4.92-0.31
		c1.3-0.09,2.59-0.2,3.89-0.3c1.65-0.14,3.29-0.28,4.93-0.44c1.34-0.13,2.67-0.26,4-0.4c1.65-0.18,3.3-0.37,4.95-0.57
		c1.39-0.17,2.77-0.34,4.15-0.52c1.66-0.22,3.32-0.45,4.97-0.7c1.45-0.21,2.9-0.43,4.34-0.67c1.67-0.27,3.34-0.54,5.01-0.83
		c1.53-0.27,3.05-0.55,4.57-0.83c1.69-0.32,3.38-0.63,5.06-0.97c1.62-0.33,3.23-0.68,4.85-1.03c1.72-0.37,3.44-0.73,5.15-1.13
		c1.73-0.4,3.45-0.84,5.16-1.26c1.77-0.44,3.54-0.88,5.3-1.35c1.84-0.48,3.68-0.98,5.51-1.49c1.85-0.52,3.69-1.07,5.53-1.61
		c1.98-0.59,3.96-1.19,5.92-1.81c1.95-0.62,3.9-1.25,5.84-1.9c2.16-0.72,4.3-1.48,6.44-2.24c2.12-0.76,4.24-1.54,6.34-2.33
		c2.35-0.89,4.68-1.79,7-2.73c2.38-0.96,4.75-1.93,7.1-2.93c2.59-1.11,5.16-2.24,7.72-3.4c2.81-1.28,5.6-2.6,8.38-3.95
		c2.91-1.42,5.8-2.88,8.66-4.37c3.61-1.88,7.17-3.81,10.71-5.81c3.35-1.89,6.69-3.82,9.97-5.81c5.47-3.32,10.84-6.79,16.12-10.38
		c4.31-2.93,8.55-5.95,12.72-9.06c38.75-28.92,71.49-65.42,96.09-107.29l-26.52,28.36l29.42-33.38
		c7.57-13.38,14.31-27.29,20.17-41.66l-73.38,83.25l77.38-93.49c3.85-10.36,7.24-20.95,10.15-31.73l-110.2,133.15l113.62-146.83
		c2.01-8.82,3.7-17.76,5.06-26.82L612.52,629.31l142.32-197.67c0.8-7.77,1.34-15.62,1.64-23.52L592.02,636.54L756.73,389.31z"/>
</g>
</svg>
